:SAMPLES-PER-SECOND 24
:FULLY-SPECIFIED
:DEGREES
485
root  -2.2804 41.5153 34.1323 171.449 52.8402 175.99
RightUpLeg  7.19669 -15.961 -19.3805
RightLeg  20.45 1.96834 0.58354
RightFoot  12.6765 -3.49629 16.7549
RightToes  -1.74623e-010 0 -2.59999e-017
Spine  1.25438 2.17664 2.27439
Spine1  12.9311 2.35162 -0.591092
HEad  -10.9393 43.3869 -19.9634
LeftShoulder1  1.57967 -1.94316 -22.694
LeftArm  11.1181 22.122 -42.4983
LeftForeArm  16.1768 -34.6183 -6.80956
LeftHand  0.0366677 1.6362 -1.86398
RightShoulder  3.43967 5.65274 31.6852
RightArm  -3.47627 -26.9594 36.9984
RightForeArm  121.625 71.8573 143.28
RightHand  0.639291 -11.9302 -11.7738
LeftUpLeg  -3.91519 10.0215 8.61116
LeftLeg  17.6363 -5.50572 -1.76787
LeftFoot  18.5941 3.11571 -12.0494
LeftToes  -6.27559e-011 -2.10356e-011 8.24929e-012
486
root  -2.14707 42.2428 33.9674 171.696 53.3259 175.889
RightUpLeg  6.62383 -15.1727 -18.6869
RightLeg  19.3389 1.50703 0.374322
RightFoot  16.036 -3.54772 14.9285
RightToes  -1.74623e-010 0 -2.59999e-017
Spine  -0.427202 2.3615 2.58454
Spine1  13.5447 2.73822 -1.22739
HEad  -10.7071 42.8061 -18.2875
LeftShoulder1  1.51156 -1.98497 -21.1533
LeftArm  7.62376 27.7313 -42.4865
LeftForeArm  15.3698 -38.2722 -7.89113
LeftHand  0.13531 1.63979 -4.38287
RightShoulder  3.28559 5.52422 30.49
RightArm  0.592687 -31.8589 37.8283
RightForeArm  132.884 69.2623 149.509
RightHand  0.0590165 -8.25653 -3.68489
LeftUpLeg  -2.47431 9.16527 8.82995
LeftLeg  13.9172 -2.67898 -1.23799
LeftFoot  21.4999 3.89739 -13.6662
LeftToes  -6.27559e-011 -2.10356e-011 8.24929e-012
487
root  -2.15967 42.3201 33.9355 171.188 53.5162 175.708
RightUpLeg  6.39709 -13.8537 -18.3603
RightLeg  20.2458 3.48584 1.21323
RightFoot  12.3228 -2.78477 13.6303
RightToes  -1.74623e-010 0 -2.59999e-017
Spine  -0.247526 2.42046 2.6294
Spine1  14.303 2.95481 -1.96966
HEad  -13.309 41.8111 -19.639
LeftShoulder1  1.53167 -2.26683 -20.0851
LeftArm  9.30138 29.5366 -41.5261
LeftForeArm  10.817 -40.2869 -8.80298
LeftHand  -0.050786 3.01603 1.71967
RightShoulder  3.0308 5.25952 28.6473
RightArm  3.03282 -33.1082 38.0263
RightForeArm  138.123 66.7696 153.523
RightHand  -0.0682201 -6.81446 2.05859
LeftUpLeg  -2.09424 9.16545 8.85625
LeftLeg  14.4584 -0.423374 -0.532947
LeftFoot  18.1311 2.93851 -11.541
LeftToes  -6.27559e-011 -2.10356e-011 8.24929e-012
488
root  -2.27969 41.82 34.0339 170.677 53.2954 175.497
RightUpLeg  5.58004 -12.5691 -18.0812
RightLeg  22.0129 4.755 1.90103
RightFoot  9.25619 -2.39802 13.4941
RightToes  -1.74623e-010 0 -2.59999e-017
Spine  0.999806 2.34247 2.05477
Spine1  14.5199 2.86813 -2.15096
HEad  -15.5906 41.1992 -21.0574
LeftShoulder1  1.58602 -2.46085 -20.1365
LeftArm  12.079 28.1564 -39.1646
LeftForeArm  9.80127 -40.3817 -8.89954
LeftHand  -0.139391 3.28221 6.98823
RightShoulder  2.964 5.18635 28.1581
RightArm  3.80328 -31.0962 35.8213
RightForeArm  137.119 65.3691 155.024
RightHand  -0.14137 -7.79481 4.46759
LeftUpLeg  -3.2525 10.3382 9.00026
LeftLeg  17.3563 -0.56133 -0.0588805
LeftFoot  17.1848 2.33605 -9.59191
LeftToes  -6.27559e-011 -2.10356e-011 8.24929e-012
489
root  -2.4408 40.6388 34.1614 170.27 53.3099 175.118
RightUpLeg  3.80746 -12.0302 -18.2942
RightLeg  26.2973 5.03771 2.48609
RightFoot  3.65978 -1.87513 14.3895
RightToes  -1.74623e-010 0 -2.59999e-017
Spine  2.64383 2.42992 1.36748
Spine1  13.6699 2.9279 -2.26791
HEad  -16.6663 40.9129 -21.2978
LeftShoulder1  1.58908 -2.58872 -19.5938
LeftArm  13.5575 26.1881 -37.711
LeftForeArm  9.72127 -39.5497 -8.63709
LeftHand  -0.169291 3.50992 9.77653
RightShoulder  2.91244 5.16642 27.6234
RightArm  2.80025 -27.6377 33.9921
RightForeArm  133.351 66.3055 153.553
RightHand  -0.132081 -7.67561 4.23382
LeftUpLeg  -4.96613 11.3897 9.40315
LeftLeg  21.999 -1.47013 -0.305366
LeftFoot  12.2835 2.22601 -11.0512
LeftToes  -6.27559e-011 -2.10356e-011 8.24929e-012
490
root  -2.64546 38.8221 34.3341 169.688 52.927 174.81
RightUpLeg  2.47405 -12.7441 -19.2246
RightLeg  32.7485 5.438 3.52805
RightFoot  -9.38401 -0.320786 14.4879
RightToes  -1.74623e-010 0 -2.59999e-017
Spine  4.79782 2.38418 0.369145
Spine1  12.9006 2.65844 -2.09401
HEad  -18.6191 40.2948 -22.3449
LeftShoulder1  1.56038 -2.63482 -18.8774
LeftArm  15.8769 22.3272 -36.6719
LeftForeArm  6.83939 -37.4313 -8.16173
LeftHand  -0.163142 3.60464 9.83881
RightShoulder  2.75509 4.97778 26.4743
RightArm  0.497922 -21.9645 32.9008
RightForeArm  125.293 69.2253 148.623
RightHand  -0.0908983 -7.75431 2.00992
LeftUpLeg  -7.65127 12.0213 9.76502
LeftLeg  29.9032 -2.5449 -1.23722
LeftFoot  -1.64489 1.07321 -12.3627
LeftToes  -6.27559e-011 -2.10356e-011 8.24929e-012
491
root  -2.94944 36.9893 34.6075 169.718 51.9947 175.21
RightUpLeg  0.385061 -13.812 -19.7733
RightLeg  40.1733 5.4691 4.66324
RightFoot  -21.847 1.08487 13.4226
RightToes  -1.74623e-010 0 -2.59999e-017
Spine  6.40005 2.12965 -0.226412
Spine1  14.3416 2.11774 -1.64449
HEad  -22.6546 38.6531 -24.9924
LeftShoulder1  1.57161 -2.47851 -19.7976
LeftArm  18.3659 14.2207 -35.6303
LeftForeArm  3.05526 -31.8056 -6.83234
LeftHand  -0.176269 3.45372 9.55553
RightShoulder  2.72201 4.86427 26.526
RightArm  -3.22731 -13.5072 31.4802
RightForeArm  114.43 73.3812 138.489
RightHand  0.148741 -10.5231 -4.53611
LeftUpLeg  -12.6637 12.2641 10.2022
LeftLeg  40.1841 -3.06198 -2.37392
LeftFoot  -12.6721 -0.0525763 -11.4941
LeftToes  -6.27559e-011 -2.10356e-011 8.24929e-012
492
root  -3.19998 36.0554 34.8227 170.459 51.4885 176.107
RightUpLeg  -2.00454 -14.3646 -19.4925
RightLeg  45.2035 5.25812 5.34786
RightFoot  -25.7824 1.46662 12.9149
RightToes  -1.74623e-010 0 -2.59999e-017
Spine  6.59532 2.0022 0.23119
Spine1  16.824 1.99546 -1.59951
HEad  -26.1977 36.9746 -27.139
LeftShoulder1  1.6356 -2.41539 -21.249
LeftArm  18.7043 6.90692 -37.1281
LeftForeArm  -1.11356 -24.5492 -5.30793
LeftHand  0.0688128 5.97301 16.2927
RightShoulder  2.86534 5.02307 27.6388
RightArm  -7.01829 -7.21692 32.4981
RightForeArm  106.314 77.1147 123.059
RightHand  1.19451 -15.1038 -14.6206
LeftUpLeg  -16.6077 12.5336 10.9175
LeftLeg  46.4854 -3.22729 -3.19631
LeftFoot  -14.8558 -0.264618 -11.4872
LeftToes  -6.27559e-011 -2.10356e-011 8.24929e-012
493
root  -3.16727 36.6376 34.8188 170.913 51.3707 176.66
RightUpLeg  -0.902292 -15.1087 -19.3264
RightLeg  42.6528 6.03574 5.6334
RightFoot  -22.4072 1.14442 13.3366
RightToes  -1.74623e-010 0 -2.59999e-017
Spine  6.17128 1.97763 0.540946
Spine1  17.4111 2.02186 -1.69076
HEad  -26.7958 37.1694 -27.8786
LeftShoulder1  1.66292 -2.50042 -21.3174
LeftArm  14.5971 6.45664 -41.3445
LeftForeArm  -3.15794 -20.9285 -5.82653
LeftHand  0.873446 9.1424 27.0816
RightShoulder  2.99345 5.19374 28.4778
RightArm  -8.35689 -7.77125 37.408
RightForeArm  106.983 78.2979 116.331
RightHand  2.28969 -17.356 -22.0866
LeftUpLeg  -14.9226 12.5874 11.2841
LeftLeg  42.9727 -3.74995 -3.31917
LeftFoot  -12.8617 -0.0840481 -11.8752
LeftToes  -6.27559e-011 -2.10356e-011 8.24929e-012
494
root  -2.92395 38.3389 34.6396 171.451 51.2157 176.946
RightUpLeg  3.3073 -16.5283 -19.323
RightLeg  33.1676 7.80738 5.21038
RightFoot  -13.5717 0.186304 14.4033
RightToes  -1.74623e-010 0 -2.59999e-017
Spine  5.48784 1.8027 0.377397
Spine1  15.9257 1.82028 -1.24785
HEad  -24.7377 39.1213 -27.6253
LeftShoulder1  1.63894 -2.43233 -21.2256
LeftArm  14.2202 11.0332 -44.6095
LeftForeArm  -4.11766 -22.2133 -5.46678
LeftHand  0.450285 7.35913 25.6261
RightShoulder  3.10787 5.30911 29.3458
RightArm  -6.79466 -13.3641 41.7335
RightForeArm  114.65 77.0116 125.697
RightHand  1.7314 -15.0634 -20.5964
LeftUpLeg  -9.51407 12.363 11.0983
LeftLeg  31.8868 -4.31595 -2.52689
LeftFoot  -5.33072 0.649278 -11.8891
LeftToes  -6.27559e-011 -2.10356e-011 8.24929e-012
